<svg width="24" height="24" viewBox="0 0 24 24" fill="none" xmlns="http://www.w3.org/2000/svg">
<path d="M2.49373 0.686265C2.1032 0.295741 1.47004 0.295741 1.07951 0.686265C0.68899 1.07679 0.68899 1.70995 1.07951 2.10048L2.49373 0.686265ZM22.9998 23.6066C23.5521 23.6066 23.9998 23.1589 23.9998 22.6066L23.9998 13.6066C23.9998 13.0543 23.5521 12.6066 22.9998 12.6066C22.4475 12.6066 21.9998 13.0543 21.9998 13.6066L21.9998 21.6066L13.9998 21.6066C13.4475 21.6066 12.9998 22.0543 12.9998 22.6066C12.9998 23.1589 13.4475 23.6066 13.9998 23.6066L22.9998 23.6066ZM1.07951 2.10048L22.2927 23.3137L23.7069 21.8995L2.49373 0.686265L1.07951 2.10048Z" fill="#3462C3"/>
</svg>
